<svg width="711" height="232" viewBox="0 0 711 232" fill="none" xmlns="http://www.w3.org/2000/svg">
<path fill-rule="evenodd" clip-rule="evenodd" d="M82.4949 139.914C98.8614 135.885 111 121.11 111 103.5C111 87.0346 100.388 73.0478 85.6308 68.0055C105.222 68.3421 121 84.3285 121 104C121 123.882 104.882 140 84.9999 140C84.1579 140 83.3226 139.971 82.4949 139.914Z" fill="#B81F3F"/>
<path d="M52.5552 231.876C50.6052 231.876 48.7926 231.726 47.1176 231.426C45.4431 231.096 44.0705 230.646 43 230.076L44.6006 223.102C45.8202 223.732 47.2067 224.242 48.7603 224.632C50.3138 225.022 51.8106 225.217 53.2506 225.217C54.7506 225.217 55.9076 225.097 56.7215 224.857C57.536 224.587 58.0557 224.002 58.2806 223.102C58.3126 222.982 58.3301 222.832 58.3331 222.652C58.3455 221.902 57.8897 221.347 56.9657 220.987C56.0417 220.627 54.6699 220.133 52.8503 219.503C50.8223 218.783 49.2917 217.913 48.2586 216.893C47.226 215.843 46.7234 214.493 46.7508 212.844C46.7562 212.514 46.7767 212.184 46.8122 211.854C46.8481 211.494 46.9144 211.119 47.0108 210.729C47.6581 207.879 49.1039 205.719 51.3483 204.25C53.6231 202.75 56.8756 202 61.1056 202C62.6956 202 64.2983 202.135 65.9138 202.405C67.5594 202.675 68.8594 202.975 69.8139 203.305L68.2125 210.324C66.932 209.754 65.6787 209.349 64.4527 209.109C63.2267 208.869 62.0436 208.749 60.9036 208.749C59.5836 208.749 58.4269 208.854 57.4334 209.064C56.4699 209.274 55.876 209.814 55.6516 210.684C55.6201 210.774 55.6028 210.909 55.5999 211.089C55.5904 211.659 55.9582 212.094 56.7032 212.394C57.4482 212.694 58.6863 213.113 60.4173 213.653C63.0144 214.433 64.8135 215.393 65.8146 216.533C66.8157 217.673 67.3033 219.023 67.2774 220.582C67.271 220.972 67.2342 221.377 67.1673 221.797C67.1003 222.217 67.0181 222.652 66.9206 223.102C66.5318 224.842 65.8014 226.372 64.7295 227.691C63.6877 229.011 62.1855 230.046 60.2231 230.796C58.2611 231.516 55.7052 231.876 52.5552 231.876Z" fill="#3F3F3F"/>
<path d="M170.627 231.426L175.819 208.749H167.674L169.083 202.45H193.833L192.424 208.749H184.279L179.087 231.426H170.627Z" fill="#3F3F3F"/>
<path d="M298.94 231.876C296.48 231.876 294.401 231.471 292.705 230.661C291.009 229.821 289.722 228.696 288.846 227.287C288 225.847 287.591 224.227 287.621 222.427C287.634 221.647 287.738 220.837 287.932 219.998L291.958 202.45H300.418L296.537 219.368C296.343 220.207 296.241 220.942 296.23 221.572C296.212 222.682 296.544 223.477 297.226 223.957C297.908 224.437 299.029 224.677 300.589 224.677C302.509 224.677 303.956 224.272 304.929 223.462C305.903 222.652 306.6 221.287 307.022 219.368L310.903 202.45H319.363L315.287 220.267C314.379 224.347 312.591 227.302 309.92 229.131C307.25 230.961 303.59 231.876 298.94 231.876Z" fill="#3F3F3F"/>
<path d="M412.682 231.426L419.283 202.45H432.243C434.493 202.45 436.467 202.825 438.164 203.575C439.892 204.325 441.223 205.48 442.157 207.039C443.091 208.599 443.538 210.579 443.498 212.978C443.488 213.608 443.432 214.268 443.331 214.958C443.259 215.648 443.142 216.368 442.98 217.118C442.265 220.447 441.2 223.162 439.785 225.262C438.37 227.362 436.529 228.921 434.262 229.941C432.026 230.931 429.257 231.426 425.957 231.426H412.682ZM422.6 224.947H426.02C427.43 224.947 428.663 224.752 429.72 224.362C430.777 223.942 431.689 223.177 432.458 222.067C433.227 220.927 433.854 219.278 434.34 217.118C434.503 216.338 434.635 215.618 434.736 214.958C434.836 214.298 434.891 213.698 434.9 213.158C434.927 211.539 434.526 210.429 433.696 209.829C432.866 209.229 431.536 208.929 429.706 208.929H426.286L422.6 224.947Z" fill="#3F3F3F"/>
<path d="M538.948 231.426L545.548 202.45H554.008L547.408 231.426H538.948Z" fill="#3F3F3F"/>
<path d="M661.309 231.876C657.589 231.876 654.647 231.066 652.484 229.446C650.321 227.796 649.27 225.187 649.329 221.617C649.351 220.267 649.557 218.738 649.945 217.028C650.785 213.428 651.988 210.534 653.554 208.344C655.121 206.124 657.112 204.52 659.529 203.53C661.976 202.51 664.864 202 668.194 202C672.034 202 675.005 202.84 677.107 204.52C679.21 206.169 680.232 208.764 680.173 212.304C680.151 213.683 679.944 215.258 679.555 217.028C678.359 222.247 676.271 226.027 673.292 228.366C670.343 230.706 666.349 231.876 661.309 231.876ZM662.958 224.677C665.118 224.677 666.823 224.077 668.073 222.877C669.353 221.647 670.301 219.698 670.915 217.028C671.077 216.308 671.193 215.648 671.263 215.048C671.363 214.418 671.418 213.863 671.425 213.383C671.45 211.884 671.078 210.819 670.308 210.189C669.569 209.529 668.315 209.199 666.545 209.199C664.385 209.199 662.68 209.799 661.43 210.999C660.211 212.169 659.262 214.178 658.585 217.028C658.423 217.748 658.292 218.408 658.192 219.008C658.092 219.608 658.038 220.163 658.03 220.672C658.006 222.112 658.379 223.147 659.148 223.777C659.948 224.377 661.218 224.677 662.958 224.677Z" fill="#3F3F3F"/>
<path d="M132.047 110.131C131.256 110.394 130.196 106.683 129.159 101.796C126.287 88.2666 118.729 76.0535 107.016 68.6976L69.499 45.1348C59.8858 39.0973 58.6802 25.5562 67.0755 17.9153V17.9153C74.2058 11.4257 85.2286 12.0717 91.2709 19.5849C112.52 46.0071 154.655 102.621 132.047 110.131Z" fill="#B81F3F"/>
<path fill-rule="evenodd" clip-rule="evenodd" d="M37.7731 78.7812C22.6705 104.756 31.4842 138.056 57.4592 153.159C83.4341 168.261 116.734 159.448 131.837 133.473C146.939 107.498 138.126 74.1977 112.151 59.0951C86.1756 43.9925 52.8757 52.8063 37.7731 78.7812ZM55.9712 89.3622C46.7123 105.287 52.1157 125.702 68.04 134.96C83.9644 144.219 104.379 138.816 113.638 122.892C122.897 106.967 117.494 86.5522 101.569 77.2933C85.6451 68.0344 65.2301 73.4378 55.9712 89.3622Z" fill="#36DBFF"/>
<path fill-rule="evenodd" clip-rule="evenodd" d="M93.2389 159.873C80.8952 161.81 68.2608 159.439 57.4592 153.159L68.0401 134.96C83.9645 144.219 104.379 138.816 113.638 122.892C122.897 106.967 117.494 86.5522 101.569 77.2933C85.6452 68.0344 65.2301 73.4378 55.9712 89.3622C51.5789 96.9166 50.4862 105.482 52.2512 113.387L31.7054 117.969C28.9857 105.774 30.5467 93.0138 36.126 81.8339C41.7054 70.6539 50.963 61.7351 62.3431 56.5764C73.7233 51.4177 86.5323 50.3334 98.6177 53.5058C110.703 56.6781 121.328 63.9138 128.707 73.9968C136.087 84.0798 139.77 96.3956 139.139 108.874C138.508 121.353 133.601 133.235 125.242 142.522C116.883 151.809 105.583 157.936 93.2389 159.873Z" fill="#E1274E"/>
<path fill-rule="evenodd" clip-rule="evenodd" d="M86.3509 160.509C76.2238 160.797 66.2175 158.251 57.4591 153.159L68.0401 134.96C83.9644 144.219 104.379 138.816 113.638 122.892C122.897 106.967 117.494 86.5522 101.569 77.2933C88.3272 69.5939 71.9797 72.0336 61.5243 82.2309L46.8407 67.159C54.0974 60.0892 63.184 55.1862 73.0769 53.0022C82.9699 50.8182 93.2762 51.44 102.835 54.7976C112.393 58.1552 120.825 64.1151 127.179 72.0061C133.533 79.897 137.557 89.4054 138.799 99.4602C140.04 109.515 138.449 119.717 134.205 128.916C129.962 138.116 123.233 145.947 114.778 151.529C106.323 157.111 96.478 160.221 86.3509 160.509Z" fill="#FFF10C"/>
<path fill-rule="evenodd" clip-rule="evenodd" d="M81.6567 160.44C73.1312 159.945 64.8418 157.451 57.4592 153.159L68.0401 134.961C83.9645 144.219 104.379 138.816 113.638 122.892C122.897 106.967 117.494 86.5522 101.569 77.2933C95.4407 73.7299 88.6468 72.3383 82.0798 72.8823L80.3602 51.9049C88.8715 51.2072 97.4275 52.523 105.336 55.7458C113.244 58.9685 120.283 64.0078 125.882 70.4557C131.481 76.9036 135.484 84.5791 137.567 92.8612C139.649 101.143 139.752 109.799 137.868 118.129C135.984 126.458 132.166 134.227 126.722 140.807C121.279 147.387 114.363 152.592 106.533 156.003C98.7043 159.414 90.1822 160.934 81.6567 160.44Z" fill="#E1274E"/>
<path fill-rule="evenodd" clip-rule="evenodd" d="M51.5894 157.44L45 186.367H72.26L76.6537 166.814C67.3331 166.011 58.7434 162.652 51.5894 157.44ZM134.067 186.367L155.336 93.0001H203.911C212.804 93.0001 219.533 95.2715 224.098 99.8142C228.664 104.26 230.885 110.204 230.762 117.647C230.719 120.256 230.381 123.108 229.75 126.201C228.293 132.483 225.445 138.041 221.209 142.873C216.973 147.609 211.935 151.234 206.093 153.747C207.046 154.617 207.753 155.68 208.215 156.936C208.68 158.096 209.136 159.739 209.584 161.866L214.832 186.367H186.412L181.565 163.895C181.207 162.156 180.551 160.947 179.595 160.271C178.641 159.498 177.149 159.111 175.119 159.111H167.434L161.327 186.367H134.067ZM172.276 138.234H186.631C194.944 138.234 200.037 134.223 201.91 126.201C202.118 125.331 202.276 124.509 202.386 123.736C202.495 122.963 202.556 122.238 202.567 121.561C202.609 119.048 201.915 117.163 200.486 115.907C199.058 114.554 196.604 113.877 193.124 113.877H177.899L172.276 138.234ZM247.518 93.0001L226.25 186.367H253.51L274.778 93.0001H247.518ZM266.748 186.367L288.016 93.0001H311.216L335.191 142.438L346.451 93.0001H373.711L352.443 186.367H329.098L305.265 137.074L294.008 186.367H266.748ZM402.758 113.297L386.031 186.367H392.65V186.389H469.65V186.367H474.125L480.232 159.111H487.917C489.947 159.111 491.439 159.498 492.393 160.271C493.348 160.947 494.005 162.156 494.363 163.895L499.21 186.367H527.63L522.382 161.866C521.933 159.739 521.477 158.096 521.013 156.936C520.551 155.68 519.843 154.617 518.891 153.747C524.733 151.234 529.771 147.609 534.006 142.873C538.243 138.041 541.09 132.483 542.548 126.201C543.179 123.108 543.517 120.256 543.56 117.647C543.683 110.204 541.462 104.26 536.895 99.8142C532.331 95.2715 525.602 93.0001 516.708 93.0001H468.133L451.644 165.389H418.093L430.018 113.297H456.263L460.804 93.0001H381.054L376.513 113.297H402.758ZM485.073 138.234H499.428C507.742 138.234 512.835 134.223 514.708 126.201C514.916 125.331 515.074 124.509 515.184 123.736C515.293 122.963 515.354 122.238 515.365 121.561C515.407 119.048 514.713 117.163 513.284 115.907C511.856 114.554 509.402 113.877 505.922 113.877H490.697L485.073 138.234ZM560.316 93.0001L539.048 186.367H557.65V186.389H675.65V186.367H689.388L694.084 165.49H675.65V165.389H650.607L654.027 150.267H692.162L697.008 129.1H658.873L662.46 113.877H705.96L710.656 93.0001H639.896L623.407 165.389H571.027L574.446 150.267H612.581L617.427 129.1H579.292L582.88 113.877H626.38L631.076 93.0001H560.316Z" fill="#E1274E"/>
</svg>
